<svg xmlns="http://www.w3.org/2000/svg" viewBox="0 0 400 220" fill="currentColor">
<path d="M49.4936 98.9728C51.9575 110.543 53.7787 120.452 54.9571 128.701C56.2427 136.95 56.8854 144.074 56.8854 150.073C56.8854 158.108 55.0642 165.874 51.4219 173.373C47.7795 180.872 43.2266 186.979 37.7631 191.692C32.4067 196.406 27.3181 198.763 22.4973 198.763C20.1405 198.763 16.7659 198.12 12.3737 196.834C8.08857 195.549 3.96414 193.995 0.000395906 192.174L4.17839 177.069C5.89244 177.391 7.76718 177.605 9.80262 177.712C11.8381 177.926 13.7128 178.033 15.4268 178.033C18.3193 178.033 21.426 176.694 24.747 174.016C28.1751 171.338 31.014 167.963 33.2637 163.892C35.6205 159.929 36.7989 156.179 36.7989 152.644C36.7989 144.502 34.1207 128.326 28.7643 104.115L49.4936 98.9728ZM147.463 161C142 161 137.447 160.625 133.804 159.875C130.269 159.125 127.269 157.786 124.805 155.858C122.449 153.93 120.413 151.198 118.699 147.663L114.521 155.697C110.772 157.84 106.433 159.554 101.505 160.839C96.6844 162.018 91.9707 162.607 87.3642 162.607C81.5793 162.607 77.0799 161.643 73.8661 159.714C70.6522 157.679 68.349 154.572 66.9563 150.394C65.5636 146.216 64.8673 140.699 64.8673 133.843V120.666H80.2938V127.576C80.2938 130.79 80.9901 133.093 82.3828 134.486C83.7754 135.878 86.0251 136.575 89.1318 136.575C92.6671 136.575 96.4701 136.093 100.541 135.129C104.719 134.057 108.361 132.611 111.468 130.79L99.4161 84.9926L119.824 78.2435L130.108 121.952C130.965 125.487 131.983 128.165 133.161 129.986C134.447 131.808 136.161 133.093 138.304 133.843C140.553 134.593 143.606 134.968 147.463 134.968V161ZM108.254 69.8875L94.9167 56.5501L108.254 43.2126L121.592 56.5501L108.254 69.8875ZM155.13 50.9259C159.629 47.8191 166.432 44.1768 175.538 39.9988C184.751 35.8208 192.732 32.7141 199.481 30.6786L202.373 42.0878C196.481 44.0161 188.982 47.0157 179.876 51.0866C170.878 55.1574 164.075 58.5855 159.469 61.3709L155.13 50.9259ZM227.12 161C220.264 161 214.747 160.518 210.569 159.554C206.391 158.482 202.855 156.715 199.963 154.251C197.178 151.787 194.607 148.305 192.25 143.806L189.036 150.394C184.215 154.144 177.895 156.876 170.074 158.59C162.361 160.197 152.13 161 139.382 161C137.775 161 136.597 159.982 135.847 157.947C134.99 155.911 134.561 152.805 134.561 148.627C134.561 144.342 134.99 141.021 135.847 138.664C136.704 136.2 137.882 134.968 139.382 134.968C151.273 134.968 160.433 134.432 166.86 133.361C173.288 132.29 178.377 130.522 182.126 128.058C178.055 121.63 173.288 116.006 167.825 111.185C162.468 106.365 155.933 101.865 148.22 97.6873L151.273 75.3511C158.772 70.5303 168.307 65.5488 179.876 60.4067C191.553 55.1574 202.588 50.9259 212.979 47.712L218.121 68.7627C209.23 71.548 200.713 74.494 192.571 77.6008C184.537 80.6003 177.841 83.4392 172.485 86.1174C180.733 92.1166 187.375 98.0622 192.41 103.954C197.445 109.739 202.373 117.024 207.194 125.808C208.48 128.165 209.872 129.986 211.372 131.272C212.979 132.557 214.961 133.522 217.318 134.164C219.782 134.7 223.049 134.968 227.12 134.968V161ZM262.295 104.115C259.188 105.186 256.296 107.168 253.618 110.061C250.94 112.953 249.172 115.792 248.315 118.577C248.744 120.827 250.029 123.077 252.172 125.326C254.421 127.576 257.153 129.344 260.367 130.629C262.724 129.665 265.134 128.165 267.598 126.13C270.062 123.987 271.615 121.952 272.258 120.023C271.83 116.488 270.705 113.328 268.884 110.543C267.17 107.65 264.973 105.508 262.295 104.115ZM285.596 115.042C286.131 117.185 286.399 119.274 286.399 121.309C286.399 124.201 285.81 126.933 284.631 129.504C283.453 131.968 281.578 134.379 279.007 136.735C282.007 137.807 286.024 138.932 291.059 140.11C292.13 140.324 295.719 141.021 301.825 142.199C302.147 141.449 302.361 140.753 302.468 140.11C302.683 139.36 302.79 138.664 302.79 138.021C303.004 134.914 302.629 132.183 301.665 129.826C300.701 127.362 298.933 124.951 296.362 122.595C293.898 120.238 290.309 117.72 285.596 115.042ZM247.512 70.2089C268.402 81.136 283.882 89.9741 293.952 96.7231C304.129 103.472 311.092 109.739 314.842 115.524C318.591 121.202 320.466 127.897 320.466 135.611C320.466 139.896 319.502 144.234 317.573 148.627C315.752 152.912 313.395 156.447 310.503 159.232C307.61 162.018 304.664 163.41 301.665 163.41C298.558 163.41 292.559 162.393 283.667 160.357C274.883 158.322 266.205 155.858 257.635 152.965C252.707 155.965 247.19 158.054 241.084 159.232C234.978 160.411 227.639 161 219.069 161C217.569 161 216.391 159.982 215.534 157.947C214.677 155.804 214.248 152.698 214.248 148.627C214.248 144.342 214.677 141.021 215.534 138.664C216.391 136.2 217.569 134.968 219.069 134.968C222.497 134.968 225.872 134.968 229.193 134.968C232.514 134.861 234.763 134.7 235.942 134.486C234.442 132.665 233.371 130.79 232.728 128.862C232.192 126.826 231.924 124.416 231.924 121.63C231.924 117.881 233.156 113.542 235.62 108.614C238.191 103.579 242.048 98.8657 247.19 94.4734L238.352 89.492L247.512 70.2089ZM354.746 98.9728C357.21 110.543 359.031 120.452 360.209 128.701C361.495 136.95 362.138 144.074 362.138 150.073C362.138 158.108 360.317 165.874 356.674 173.373C353.032 180.872 348.479 186.979 343.015 191.692C337.659 196.406 332.57 198.763 327.75 198.763C325.393 198.763 322.018 198.12 317.626 196.834C313.341 195.549 309.216 193.995 305.253 192.174L309.431 177.069C311.145 177.391 313.02 177.605 315.055 177.712C317.09 177.926 318.965 178.033 320.679 178.033C323.572 178.033 326.678 176.694 329.999 174.016C333.427 171.338 336.266 167.963 338.516 163.892C340.873 159.929 342.051 156.179 342.051 152.644C342.051 144.502 339.373 128.326 334.017 104.115L354.746 98.9728Z"></path>
</svg>